<svg id="图层_1" data-name="图层 1" xmlns="http://www.w3.org/2000/svg" viewBox="0 0 619.27 615.55"><defs><style>.cls-1{fill:#cfd8ee;}.cls-2{fill:#8b96b4;}.cls-3{fill:#1a316b;}.cls-4{fill:#fefefe;}.cls-5{fill:#f1efed;}.cls-6{fill:#7282ab;}.cls-7{fill:#95a0bb;}.cls-8{fill:#7d8aab;}.cls-9{fill:#7181ab;}.cls-10{fill:#8894b3;}.cls-11{fill:#8995b3;}.cls-12{fill:#8e99b6;}.cls-13{fill:#fdfdfd;}.cls-14{fill:#1a326c;}.cls-15{fill:#1b336c;}</style></defs><path class="cls-1" d="M632.8,312.79c.33,8.45-1.1,16.74-2,25.1a220.29,220.29,0,0,1-3.49,22.17,265.89,265.89,0,0,1-6.94,27.25c-2.47,7.74-5.09,15.44-8.17,22.95a290.51,290.51,0,0,1-51,82.44c-5.37,6-10.74,12.05-16.62,17.58a305.77,305.77,0,0,1-33,27.27A285.65,285.65,0,0,1,474,560.12a291.11,291.11,0,0,1-39.22,16.22c-8.38,2.74-16.84,5.22-25.41,7.17a248.8,248.8,0,0,1-27.1,4.74c-9.17,1-18.35,1.6-27.54,2.26-10.65.76-21.22,0-31.77-.44a195.27,195.27,0,0,1-23.34-2.82c-8.12-1.3-16.14-3-24.15-4.71-5.69-1.22-11.23-3.2-16.83-4.85-7.66-2.26-15.12-5.08-22.53-8.05A290,290,0,0,1,205.4,555a269.62,269.62,0,0,1-23.35-14.36c-5.37-3.68-10.75-7.37-15.74-11.57-3.28-2.76-3.76-2.69-6.41.58-1.94,2.39-4.17,4.53-6.24,6.81-7.87,8.64-15.95,17.09-23.9,25.66-8.5,9.16-16.94,18.38-25.41,27.57-6.26,6.8-12.56,13.55-18.74,20.41-4.19,4.65-8.14,9.55-13.53,12.89a36.35,36.35,0,0,1-25,5.55c-12.48-1.77-21.85-8.2-27.79-19-7.76-14.06-5.81-31.09,5.48-43.32,9.64-10.45,19.19-21,28.78-31.47,4-4.41,8.05-8.83,12.13-13.21,8-8.55,16-17.05,23.94-25.62,5.91-6.37,11.75-12.81,17.61-19.23,1-1.07,1.88-2.2,2.78-3.33a2.57,2.57,0,0,0-.09-3.46,248.2,248.2,0,0,1-22.35-36.6A290.9,290.9,0,0,1,69,387.65a326.19,326.19,0,0,1-10-43.77c-1.05-6.49-1.31-13.11-1.94-19.67-1.25-13.08-2.21-26.19-1.33-39.28.43-6.45.57-13,1.7-19.41.56-3.24.8-6.66,1.53-9.84,1.17-5.06,1.39-10.26,2.91-15.27s2.29-10,3.54-15c.67-2.68,1.81-5.23,2.47-7.91,1.26-5.2,3.66-10,5-15.17.89-3.32,2.59-6.27,3.8-9.44A259.51,259.51,0,0,1,94,157.31a290.31,290.31,0,0,1,20.09-29.95,281.59,281.59,0,0,1,60.06-58.93,315.55,315.55,0,0,1,29.41-18.85A3.74,3.74,0,0,1,205.3,49a.65.65,0,0,1,.26.74,4,4,0,0,1-1.95,1.82,286.64,286.64,0,0,0-44.71,31,280.94,280.94,0,0,0-24.24,23.08,314.17,314.17,0,0,0-21.58,26,272.1,272.1,0,0,0-22.14,35,290.31,290.31,0,0,0-31.69,98.24c-1.16,8.25-1.59,16.6-2,24.94-.26,5.62-.56,11.23-.48,16.86.05,3,.34,3.51,3.26,3.29,4.88-.38,9.78-.25,14.64-.89,1.11-.8.74-2,.75-3,0-4.9,0-9.8,0-14.69,0-1.12-.31-2.44,1.12-3.08,1.09.73,1,1.9,1,3,0,5.44.06,10.89,0,16.34,0,2.72-1.37,5.26-1.06,8.06.74,6.94,1,13.92,1.73,20.87a299,299,0,0,0,10.25,49.83c.2.7.4,1.4.62,2.09,1.25,3.86,1.52,3.89,5.39,3.06s7.76-1.85,11.69-2.53c3.13-.54,3.56-1.08,2.58-4.19a260.55,260.55,0,0,1-10.12-45.4,197.8,197.8,0,0,1-2-24.67,13.69,13.69,0,0,0-.89-4.5c-1.46-4.32-.68-8.8-.53-13.22a15.42,15.42,0,0,1,.52-3.49c.17-.61.24-1.54,1.34-1.08,1,1.68.53,3.54.58,5.32.08,3.08,0,6.17,0,9.25,0,1.35.36,2.42,1.91,2.4,6.25-.07,12.51.36,18.75-.24a9.22,9.22,0,0,1,2.34-.25c2.36-.09,3,1.21,3.16,3.4q.83,13.27,2.94,26.42a211.9,211.9,0,0,0,10.05,38.6A222.33,222.33,0,0,0,164,429.44a165.14,165.14,0,0,0,12.74,16.26c4.47,5.12,8.81,10.38,13.81,15,6.32,5.85,12.81,11.49,19.65,16.75a215.48,215.48,0,0,0,34.46,21.72,218.6,218.6,0,0,0,28,11.87,235.46,235.46,0,0,0,28.58,7.72,189.92,189.92,0,0,0,24.47,3.36,202,202,0,0,0,22.26.92c13-.49,26.05-1.19,38.84-4.11,5.83-1.33,11.8-2,17.41-4.24,11-2.57,21.4-6.68,31.63-11.27a218.2,218.2,0,0,0,27.93-15c2.36-1.5,4.56-3.26,6.88-4.83,13.53-8.84,25.25-19.83,36.33-31.48a205.79,205.79,0,0,0,26.18-34.69,219.24,219.24,0,0,0,20.68-44.53,206.9,206.9,0,0,0,6-20.89c1.75-7.74,3.15-15.61,4.14-23.52.6-4.78.68-9.58,1.08-14.36.13-1.5.22-3,2-3.49a232.31,232.31,0,0,1,35.49-.39c5.14.29,10.3.3,15.44.6,3.71.22,7.4.39,11.09.83C630.3,312.12,631.73,311.89,632.8,312.79Z" transform="translate(-14.57 -13.41)"/><path class="cls-2" d="M205.46,49.63c-.06-.2-.11-.41-.16-.62a294.8,294.8,0,0,1,46.47-20.43A314.09,314.09,0,0,1,293.6,17.74c22.43-4.29,45.08-4.84,67.8-4a252,252,0,0,1,44.41,6,290.16,290.16,0,0,1,135.71,71A296.89,296.89,0,0,1,574.37,127a282.82,282.82,0,0,1,26.39,41.32,289.07,289.07,0,0,1,28.51,83.43,262,262,0,0,1,3.7,30.48c.45,7.88,1,15.76.84,23.66,0,2.3.2,4.71-1,6.87-1.08-.07-2.25.4-3.22-.46,1.57-.92,2-2.28,2-4.07a263.83,263.83,0,0,0-3.06-49.59A287.52,287.52,0,0,0,516.14,71.88,291.42,291.42,0,0,0,455,37a294.89,294.89,0,0,0-46.91-14.95c-8.4-1.95-16.93-3.14-25.43-4.5-18.58-3-37.31-2.24-56-1.92-10,.17-20,1.7-30,3.39A287.34,287.34,0,0,0,256,28.92a264.48,264.48,0,0,0-36.84,14.93c-3.65,1.83-7.35,3.57-10.94,5.52C207.36,49.84,206.46,50.42,205.46,49.63Z" transform="translate(-14.57 -13.41)"/><path class="cls-3" d="M205.46,49.63c2.65-.68,4.93-2.19,7.32-3.42a295.57,295.57,0,0,1,36.68-15.78A317.28,317.28,0,0,1,282,21.14c27-6.43,54.41-7.39,82-6.22,12.68.54,25.2,2.62,37.67,5.06a281,281,0,0,1,46.07,13.33,289.94,289.94,0,0,1,151.48,134.2,279.89,279.89,0,0,1,23.37,59.05,291.49,291.49,0,0,1,9.22,53.52c.77,10,.75,19.92.7,29.9,0,2.5-1.43,2.22-2.92,2.35a573,573,0,0,0-63.26-1.13c-1,.48-1.06,1.32-1.08,2.29a141.54,141.54,0,0,1-1.63,19.18,232.12,232.12,0,0,1-10.36,42.57,221.11,221.11,0,0,1-10.42,25,224.11,224.11,0,0,1-37.66,54,257.6,257.6,0,0,1-23.42,21.52A125.86,125.86,0,0,1,471,483.63a213.84,213.84,0,0,1-52.12,26.76c-5.2,1.81-10.51,3.22-15.69,5-4.89,1.68-10,2.38-15,3.48-17.07,3.74-34.39,4.81-51.8,4.26-7.19-.23-14.39-1.07-21.57-1.9-8.12-.94-16-2.84-23.92-4.58a154.53,154.53,0,0,1-17.7-5.2,238.11,238.11,0,0,1-27.09-11.24,209.85,209.85,0,0,1-33.32-20.44,225.58,225.58,0,0,1-37.17-35,233.5,233.5,0,0,1-26.37-38.88,211.47,211.47,0,0,1-13.71-31.84,208.11,208.11,0,0,1-8.5-32.51c-1.36-7.73-2.66-15.5-2.85-23.39-.06-2.43-.56-4.84-.55-7.3,0-2-1.39-1.7-2.7-1.34l-2.14.08c-6.52.53-13,.08-19.56.24-1.38,0-1.71-.73-1.71-1.88,0-10.15-.08-20.29,1.16-30.41.72-5.93,1.38-11.85,2.45-17.73,1.35-7.47,2.83-14.92,4.87-22.24a294.91,294.91,0,0,1,9.34-28.07c2.31-5.91,5-11.64,7.72-17.37a236.64,236.64,0,0,1,22-36.8,199.21,199.21,0,0,1,21.84-26,7.64,7.64,0,0,0,1.87-2.31,3.3,3.3,0,0,1,1.39-1.52c3.73-2.29,6.25-5.88,9.42-8.78a242.63,242.63,0,0,1,37.05-27.56c1.86-1.12,3.64-2.38,5.59-3.36,1.38-.7,1.61-1.68.88-3.14-2.35-4.7-5.37-9-7.58-13.82-.89-1.91-2.41-2.47-4.51-1.61a42.57,42.57,0,0,0-5.71,3.12A231.93,231.93,0,0,0,170.17,96a252.8,252.8,0,0,0-36,37.69,275.59,275.59,0,0,0-27.6,43.27,256.51,256.51,0,0,0-15,34.67,267.08,267.08,0,0,0-9.35,33.46c-1.44,7-2.84,14-3.79,21.1-.87,6.46-1.2,13-2.08,19.43-1,7.33-.43,14.65-.66,22,0,1,0,2-1.15,2.51-5.26.18-10.53.32-15.78.57-1.84.09-2.61-.49-2.6-2.44.08-19.45,1.08-38.79,4.74-58,1.89-9.9,4.08-19.72,6.94-29.36A289.78,289.78,0,0,1,144.4,94.7a286.42,286.42,0,0,1,59.2-43.94C204.23,50.4,204.84,50,205.46,49.63Z" transform="translate(-14.57 -13.41)"/><path class="cls-4" d="M97,292.18c-1.1,1.77-1,3.93-1,5.73.17,4.49-1.58,9.23,1.35,13.46.31.44.1,1.25.11,1.88a238.93,238.93,0,0,0,6.14,49.33,214.63,214.63,0,0,0,6.6,23.74c.57,1.66-.57,3-2.79,3.36a102.57,102.57,0,0,0-14.26,3.16c-2,.59-3.55.2-4.3-2.31A316.3,316.3,0,0,1,79.48,351a271.43,271.43,0,0,1-3.37-31.17,75.09,75.09,0,0,1,.47-11.42c.68-6.64.17-13.41.16-20.12-1-1.41-.59-3-.45-4.5,1.53-16,3.71-31.93,7.73-47.53a284.46,284.46,0,0,1,13.53-40.38,279.19,279.19,0,0,1,25.76-47.47,250.41,250.41,0,0,1,20.47-26.38c5.14-5.75,10.26-11.5,15.86-16.8,3.62-3.41,7.37-6.7,11.06-10,7.43-6.18,15-12.14,23-17.57,4.79-3.25,9.77-6.21,14.66-9.3a8.79,8.79,0,0,1,4.07-1.42,3.18,3.18,0,0,1,3.5,2c1.91,4.76,5.06,8.84,7.31,13.42.87,1.77.39,2.79-1.05,3.58a206.52,206.52,0,0,0-27.3,18.13,161.14,161.14,0,0,0-15.75,13.2c-.63.64-1.28,1.29-2,1.89a118.11,118.11,0,0,0-13.58,13.63,264.36,264.36,0,0,0-20.83,26A239.65,239.65,0,0,0,124.64,189a226.37,226.37,0,0,0-14.74,36.12,15,15,0,0,1-1.59,4,16.53,16.53,0,0,0-2.09,6.84,3.15,3.15,0,0,1-.22.74c-.76,1.25-.7,2.71-1,4.08a4.09,4.09,0,0,1-.31.75c-1.13,4.77-2.6,9.47-2.87,14.41a3.83,3.83,0,0,1-.35.84c-1.15,5.63-2.11,11.28-2.74,17-.66,6-.93,12-1.43,18C97.2,292,97.09,292.07,97,292.18Z" transform="translate(-14.57 -13.41)"/><path class="cls-5" d="M29.35,580.31c.51-3,.68-6.19,3.29-9.12q8-9,16.1-18,12.92-14.3,25.88-28.57c4.32-4.75,8.64-9.52,13.08-14.16,7.1-7.4,14.3-14.7,21.47-22,.63-.64,1.37-1.17,2.06-1.75,1.79-1.52,3.26-1.22,5,.41,3.25,3.14,5.83,6.94,9.52,9.66,1.59,1.16,1.7,2.72.39,4.25-2.17,2.54-4.3,5.13-6.59,7.56-6.94,7.39-14.08,14.61-20.91,22.11-7.38,8.1-15,16-22.43,24C66.53,565.27,57.08,576,47.56,586.65c-2.41,2.7-8.88,3.93-12.91,2.42C31.75,588,29.31,584.08,29.35,580.31Z" transform="translate(-14.57 -13.41)"/><path class="cls-6" d="M120.91,309.55c2.09-.95,3.22-.52,3.33,2a223,223,0,0,0,19.09,81.17,211.38,211.38,0,0,0,22.95,39.52A218,218,0,0,0,201,469.67,224.77,224.77,0,0,0,231,491.51a217.16,217.16,0,0,0,38.28,18.1,214.44,214.44,0,0,0,41.78,10.68,223.48,223.48,0,0,0,51.56,1.82,258.72,258.72,0,0,0,40.62-7,.93.93,0,0,1,1.32.1c-3.2,1.88-6.85,2.38-10.37,3.08-8.07,1.6-16.09,3.52-24.35,4.14-12.29.92-24.53,2.1-36.91,1-8.93-.78-17.92-1.06-26.73-2.85a259.11,259.11,0,0,1-35.38-9.41,221.44,221.44,0,0,1-96-66.45,227.06,227.06,0,0,1-27.09-40.47,212,212,0,0,1-15.66-38.82,206.58,206.58,0,0,1-8-41.78c-.32-3.88-1-7.73-.92-11.63C123.24,310.21,122.57,309.53,120.91,309.55Z" transform="translate(-14.57 -13.41)"/><path class="cls-7" d="M171.2,95.43c-4.7,4.39-9.53,8.66-14.07,13.21A284,284,0,0,0,127,144.3a275.75,275.75,0,0,0-27,47.44,266.08,266.08,0,0,0-14.47,41.43,291.39,291.39,0,0,0-8.16,46.74c-.26,2.8-.58,5.59-.56,8.41-.88,1.79-.44,3.7-.48,5.56-.1,4.59-.05,9.18-.09,13.77,0,1.13.22,2.51-1.64,2.44.87-1,.59-2.25.57-3.4a264.3,264.3,0,0,1,4.62-53.57,277.25,277.25,0,0,1,48-112.14A252.52,252.52,0,0,1,169.9,95.34,1,1,0,0,1,171.2,95.43Z" transform="translate(-14.57 -13.41)"/><path class="cls-8" d="M107.88,228.94c2.53-6.78,4.63-13.7,7.38-20.41a261.13,261.13,0,0,1,20.38-40,252.12,252.12,0,0,1,26.53-35,15.51,15.51,0,0,1,1.2-1.09c2-1.83,3.36-4.41,6.12-5.42,0,.83-.59,1.3-1.1,1.8a232.75,232.75,0,0,0-32.14,41,244.41,244.41,0,0,0-21.38,43A250.43,250.43,0,0,0,104.41,247a244.6,244.6,0,0,0-4.89,29.4c-1,9.94-1.48,19.88-1.6,29.86,0,2.66.56,3.67,3.43,3.55,5.8-.25,11.61-.12,17.42-.14-2.62,1-5.34.4-8,.51-3.52.15-7.05,0-10.56.14-2.41.11-3.4-.63-3.31-3.21.19-5,.07-9.92.08-14.89h0c.54-4.19.25-8.43.76-12.63.88-7.21,1.67-14.43,3-21.57a3.66,3.66,0,0,1,.59-1.76h0a97.17,97.17,0,0,1,3.25-15.27h0c.59-1.4.36-3,1.11-4.35h0A44.11,44.11,0,0,1,107.88,228.94Z" transform="translate(-14.57 -13.41)"/><path class="cls-6" d="M470.91,483.38c5.09-4.19,10.5-8,15.57-12.2a220.73,220.73,0,0,0,29.14-29.58,225.83,225.83,0,0,0,19.73-28.52A214.36,214.36,0,0,0,559,354.42c2.61-10.69,4.73-21.55,5.26-32.65.14-3,.46-5.95.52-8.94,0-1.05.26-1.82,1.55-1.63-1,2.61-.68,5.41-.83,8.07-.44,8.08-2,16-3.27,23.92A190.36,190.36,0,0,1,555.53,370,217.24,217.24,0,0,1,524,432.35a220.64,220.64,0,0,1-39.53,41.75,121.16,121.16,0,0,1-13.55,10A.44.44,0,0,1,470.91,483.38Z" transform="translate(-14.57 -13.41)"/><path class="cls-9" d="M470.91,483.38c0,.24,0,.47,0,.7a123.24,123.24,0,0,1-16.35,10.56A203.83,203.83,0,0,1,421.68,510c-4.69,1.65-9.26,3.66-14.15,4.74a12.72,12.72,0,0,1-2.93.48l-1.32-.1c6.48-2.24,13.1-4,19.5-6.5,7.5-2.91,14.87-6.11,22.06-9.72A287.35,287.35,0,0,0,470.91,483.38Z" transform="translate(-14.57 -13.41)"/><path class="cls-4" d="M564.68,307.37c-12.45,0-24.89,0-37.34.13-2.21,0-2.22-1.17-2.45-2.67-3-20.46-6.12-40.9-9.1-61.37-.24-1.66-.79-2-2.35-2-15.63.05-31.25.07-46.88,0-1.79,0-2.23.62-2.43,2.23-1.68,13.14-3.45,26.26-5.18,39.39-1,7.38-2,14.75-2.87,22.13-.22,1.76-.84,2.57-2.72,2.32s-4.61.82-5.72-.46c-.82-.93.42-3.56.54-5.44.86-13.06,1.26-26.13-.52-39.13-1.42-10.4-7.94-16.27-17.83-18.85a68.19,68.19,0,0,0-16.44-2c-12.72-.16-25.44,0-38.15-.18-2.1,0-2.51.58-2.5,2.56.08,20.25,0,40.5.1,60.76,0,2.22-.48,3-2.81,2.87-3.16-.21-6.35-.11-9.53,0-1.41,0-1.91-.41-1.87-1.85.1-3-.08-6,.07-9,.09-1.84-.35-2.49-2.34-2.44-5.81.14-11.63,0-17.44.09-1.75,0-2.31-.42-2.28-2.24q.17-10.62,0-21.25c0-1.76.44-2.3,2.25-2.27,6.36.11,12.72,0,19.07.08,1.74,0,2.34-.39,2.31-2.23-.11-7.63-.09-15.26,0-22.89,0-1.6-.31-2.18-2.07-2.17q-27.39.1-54.78,0c-2.08,0-2.06.91-2.06,2.42,0,20.25,0,40.5.08,60.76,0,2.5-.64,3.32-3.12,3.11a47.59,47.59,0,0,0-7.36,0c-2.08.15-2.77-.43-2.75-2.65.08-11.71.18-23.43-.42-35.14-.41-8-2.53-15.25-8.91-20.57-5.35-4.47-11.87-6.1-18.64-6.78-17.3-1.74-34.67-.94-52-1.18-2.18,0-1.71,1.28-1.71,2.46,0,20.35,0,40.69.06,61,0,2.43-.61,3.14-3,3a61.76,61.76,0,0,0-8.71,0c-2.23.16-2.69-.66-2.68-2.75.07-19.8,0-39.6,0-59.39,0-4.29,0-4.29-4.27-4.29-9.54,0-19.08.08-28.61-.06-2.14,0-2.49.64-2.48,2.58.08,20.35,0,40.69.13,61,0,2.51-.73,3-3,2.92-9.72-.12-19.44-.05-29.16-.05a2.16,2.16,0,0,1-1.41-2.36c.05-6.25.27-12.48.7-18.72.39-5.61.93-11.18,1.77-16.71a227.4,227.4,0,0,1,12.47-47.38,218.69,218.69,0,0,1,14.82-31.09,186.89,186.89,0,0,1,17.91-26.26q4-4.81,8-9.62a229.26,229.26,0,0,1,29.67-27.93,212.86,212.86,0,0,1,33.56-21.56,224.33,224.33,0,0,1,34.59-14.41,209.26,209.26,0,0,1,27.83-7,244.72,244.72,0,0,1,26.07-3.17q10.49-.66,20.92-.35A218.78,218.78,0,0,1,394.61,87,227.33,227.33,0,0,1,429,98a212.3,212.3,0,0,1,32.14,16.41,220.56,220.56,0,0,1,60.73,55.81,214.24,214.24,0,0,1,32,60.85,180.88,180.88,0,0,1,6.69,24c1.41,7.35,3.06,14.66,3.71,22.17.78,9,1.59,18,1.54,27.07C565.78,305.44,566.15,306.76,564.68,307.37Z" transform="translate(-14.57 -13.41)"/><path class="cls-4" d="M206.5,343.27c0-10.53.06-21.06,0-31.6,0-2,.44-2.6,2.53-2.57q15.12.18,30.24,0c2.3,0,2.64.79,2.63,2.8-.08,13.17,0,26.33-.09,39.5,0,2,.46,2.61,2.55,2.46,5.43-.41,7.47-2.2,8-7.61,1.14-11.42.39-22.87.51-34.3,0-2.23.54-2.88,2.83-2.85,10,.14,20,.11,30,0,1.88,0,2.71.24,2.67,2.45-.26,13.53.34,27.06-.55,40.58a58.7,58.7,0,0,1-.74,6.76c-1.82,9.72-8.18,15.57-18.55,17.18a101.22,101.22,0,0,1-15.46,1.1c-14.72,0-29.43,0-44.14.05-1.88,0-2.43-.41-2.42-2.36C206.56,364.34,206.5,353.81,206.5,343.27Z" transform="translate(-14.57 -13.41)"/><path class="cls-4" d="M535.43,377.19H514.56c-4.09,0-8.18-.13-12.26.05-2.18.09-2.95-.47-3-2.77-.24-6.17-.87-12.32-1.15-18.48-.11-2.43-.72-3.62-3.45-3.29a37.67,37.67,0,0,1-6.8,0c-1.93-.12-2.84.25-3,2.52-.37,6.52-1.13,13-1.58,19.54-.14,2-.81,2.48-2.79,2.46-10.53-.11-21.07-.08-31.6,0-1.69,0-2.49,0-2.18-2.24,2.91-21.21,5.66-42.44,8.39-63.67.22-1.74.88-2.2,2.58-2.19q13.35.13,26.7,0c1.79,0,2.26.34,2,2.27-.68,5.12-.94,10.3-1.57,15.43-.21,1.75.42,2,1.86,1.92,2.63-.08,5.27-.13,7.9,0,1.7.09,2.2-.38,2-2.11-.62-4.86-1-9.75-1.66-14.61-.28-2.14.13-3,2.57-2.94,8.63.16,17.26.1,25.89,0,1.52,0,2.28.3,2.52,1.95q4.79,32.85,9.66,65.68C535.58,376.82,535.53,376.9,535.43,377.19Z" transform="translate(-14.57 -13.41)"/><path class="cls-4" d="M301.37,342.84c0-10.44.05-20.89-.05-31.33,0-1.91.52-2.41,2.42-2.4q26.29.11,52.59,0c2,0,2.5.58,2.37,2.44a46,46,0,0,0,0,6.54c.11,1.7-.47,2.14-2.13,2.11-5.81-.1-11.63,0-17.44-.08-1.82,0-2.52.39-2.49,2.38q.17,12.66,0,25.33c0,1.88.64,2.22,2.32,2.2,7-.08,14,0,21-.08,1.93,0,2.66.32,2.62,2.47-.15,7.54-.12,15.08,0,22.61,0,1.88-.62,2.2-2.3,2.19q-28.35-.08-56.68,0c-1.78,0-2.26-.46-2.25-2.24C301.41,364.27,301.37,353.55,301.37,342.84Z" transform="translate(-14.57 -13.41)"/><path class="cls-4" d="M446.51,309.15c-3.05,7.12-8.71,10.16-15.33,11.87s-13.68,1.66-20.58,1.52c-2-.05-2.56.5-2.55,2.54.09,16.52,0,33.05.1,49.57,0,2-.4,2.62-2.51,2.59q-15.25-.18-30.51,0c-1.91,0-2.4-.46-2.39-2.38q.11-31.59,0-63.18c0-1.35-.33-2.58,2-2.57C398.52,309.19,422.31,309.15,446.51,309.15Z" transform="translate(-14.57 -13.41)"/><path class="cls-4" d="M156.91,343.14c0-10.54.05-21.07,0-31.61,0-1.88.45-2.44,2.39-2.43q15.26.15,30.52,0c1.87,0,2.48.45,2.47,2.4q-.09,31.75,0,63.49c0,1.53-.2,2.25-2,2.24q-15.66-.15-31.34,0c-1.85,0-2-.71-2-2.22C156.94,364.4,156.91,353.77,156.91,343.14Z" transform="translate(-14.57 -13.41)"/><path class="cls-5" d="M230.13,60.68a4.16,4.16,0,0,1,2.27-4.28,151,151,0,0,1,17.12-8.9c2.31-1,3.81-.57,5.1,1.77,2.54,4.57,4.26,9.51,6.73,14.1.62,1.15.33,1.94-1,2.58-6.37,3.19-12.7,6.49-19,9.74-1,.54-2.15.83-3-.22a58.19,58.19,0,0,1-8.18-14.28C230.08,60.87,230.1,60.48,230.13,60.68Z" transform="translate(-14.57 -13.41)"/><path class="cls-10" d="M564.68,307.37c1.05-3.56.52-7.22.38-10.81a221.81,221.81,0,0,0-2.45-28.42,231.43,231.43,0,0,0-17.39-57.6A219.8,219.8,0,0,0,477,125.9a225.27,225.27,0,0,0-29-18.49,218,218,0,0,0-33.4-14.25,212.14,212.14,0,0,0-25.43-6.86,233.54,233.54,0,0,0-29.6-4.07,212.22,212.22,0,0,0-33.45.23,216.22,216.22,0,0,0-31.63,5,228.17,228.17,0,0,0-34.37,11,221.74,221.74,0,0,0-76,52.25c-1.63,1.7-2.88,3.76-4.85,5.12q-.36.39-.66,0a4.5,4.5,0,0,1,1.5-2.22,234.55,234.55,0,0,1,36.36-32.24,225.41,225.41,0,0,1,50.07-26.5,207.4,207.4,0,0,1,37.54-10.63A222.23,222.23,0,0,1,364,81.56a228.47,228.47,0,0,1,53,11.31,217.15,217.15,0,0,1,39,17.87,222.66,222.66,0,0,1,48,37.62,219.88,219.88,0,0,1,38.38,54,217.66,217.66,0,0,1,14.86,37.49,210,210,0,0,1,8.17,44.24c.47,7,1,13.93.84,20.92C566.24,306.06,566.76,307.64,564.68,307.37Z" transform="translate(-14.57 -13.41)"/><path class="cls-4" d="M241.82,286c0-6.35.06-12.7,0-19.05,0-1.79.49-2.28,2.28-2.21,6.25.23,8.53,2.17,8.67,8.59.23,10.88.1,21.76.19,32.65,0,1.51-.59,1.82-1.93,1.78-2.36-.08-4.72-.12-7.07,0-1.74.1-2.15-.57-2.13-2.19C241.87,299.1,241.82,292.57,241.82,286Z" transform="translate(-14.57 -13.41)"/><path class="cls-4" d="M408.1,282.05c0-5.08.08-10.15,0-15.22,0-1.74.52-2.08,2.16-2,6.35.2,8.77,2.39,8.91,8.69.13,5.8.19,11.6-.05,17.39-.25,6.35-2.9,8.58-9.09,8.43-1.59,0-1.94-.57-1.92-2.05C408.15,292.19,408.1,287.12,408.1,282.05Z" transform="translate(-14.57 -13.41)"/><path class="cls-11" d="M178.65,155.87l.66,0c-6.21,7.79-12.62,15.41-18.13,23.74a219.27,219.27,0,0,0-34.71,89.51,262.71,262.71,0,0,0-2.67,35.77,3.61,3.61,0,0,0,1,3c-1.47.39-1.73-.49-1.72-1.64,0-8.35,0-16.68.89-25,.85-7.67,2-15.26,3.47-22.83a206.44,206.44,0,0,1,8.24-30.05,217,217,0,0,1,27.8-53.76C168.13,168.06,172.78,161.46,178.65,155.87Z" transform="translate(-14.57 -13.41)"/><path class="cls-12" d="M171.2,95.43l-1.3-.09a216.26,216.26,0,0,1,29-21.8c3.66-2.31,7.19-4.86,11.16-6.65,3.59-1.62,4.4-1.19,6.32,2.41,2.32,4.34,4.7,8.65,7.26,12.85,1.3,2.12.67,3.33-1.2,4.36A224,224,0,0,0,194.72,105c-5.1,3.9-9.92,8.16-14.87,12.25a.86.86,0,0,1-1.25-.08,198.82,198.82,0,0,1,23.37-19A190.05,190.05,0,0,1,221.61,85.6c1.66-.91,2.06-1.71,1-3.62-2.35-4.34-5.08-8.48-7.1-13-.83-1.87-3.6-2-6.27-.44q-4.56,2.67-9,5.56a242.53,242.53,0,0,0-27.51,20.29A14.44,14.44,0,0,1,171.2,95.43Z" transform="translate(-14.57 -13.41)"/><path class="cls-13" d="M491.49,273.63c.95,10.44,1.85,20.9,2.89,31.34.21,2.13-.43,2.57-2.44,2.53-5.17-.11-5.19,0-4.54-5.09q1.86-14.39,3.75-28.75Z" transform="translate(-14.57 -13.41)"/><path class="cls-12" d="M169.49,127c-2.36,1.45-3.69,4.05-6.12,5.42,1.4-2.72,3.89-4.48,6-6.58,2.46-2.5,4.7-5.27,7.7-7.2.49.59,0,1-.33,1.35a73,73,0,0,1-6.15,5.91Z" transform="translate(-14.57 -13.41)"/><path class="cls-8" d="M170.55,125.9c1.8-2.73,4.89-4.33,6.48-7.26a3.53,3.53,0,0,1,1.57-1.51l1.25.08C176.88,120.24,174.25,123.65,170.55,125.9Z" transform="translate(-14.57 -13.41)"/><path class="cls-1" d="M101.34,256.21q-1.12,7.91-2.27,15.81a182,182,0,0,0-1.66,18.36,2.44,2.44,0,0,1-.44,1.79c-.38-8.4.81-16.66,1.9-25,.4-3,1.39-6,1.35-9A1.81,1.81,0,0,1,101.34,256.21Z" transform="translate(-14.57 -13.41)"/><path class="cls-1" d="M104.59,240.93c-.73,5.17-2.11,10.19-3.25,15.27-.37-3.9.73-7.56,2-11.18C103.74,243.66,102.73,241.83,104.59,240.93Z" transform="translate(-14.57 -13.41)"/><path class="cls-1" d="M107.88,228.94a22.35,22.35,0,0,1-2.18,7.64A10.61,10.61,0,0,1,107.88,228.94Z" transform="translate(-14.57 -13.41)"/><path class="cls-1" d="M105.7,236.58a6.29,6.29,0,0,1-1.11,4.35C104.58,239.38,104.24,237.75,105.7,236.58Z" transform="translate(-14.57 -13.41)"/><path class="cls-14" d="M263,197.62a45.84,45.84,0,0,0-.38-9.52,2.71,2.71,0,0,0-2.57-2.72c-1.58-.08-1.68-1.08-1.71-2.23-.05-1.31.78-1.74,1.9-1.79,2.36-.08,4.72-.13,7.08-.19,2.6-.06,3.63,1.08,3.59,3.8-.12,10.81-.07,21.62,0,32.43,0,3.18.2,6.35.38,9.52.1,1.72.23,3.37,2.15,4.35,1,.52.89,1.66,0,2.52a5.63,5.63,0,0,1-8.67-.85c-.85-1.27-1.51-.53-2.22-.14a22.18,22.18,0,0,1-12.57,2.72c-5.28-.39-9-3-10.41-8.07a31.21,31.21,0,0,1,1.19-21.31c2.76-6.39,9.37-9.68,17.64-9.07C259.86,197.19,261.38,197.43,263,197.62Z" transform="translate(-14.57 -13.41)"/><path class="cls-14" d="M393,197.65c-.2-3.3-.33-6.29-.58-9.27-.14-1.55-.85-2.89-2.6-3-1.57-.1-1.69-1.06-1.73-2.21,0-1.32.77-1.76,1.89-1.81,2.36-.08,4.72-.13,7.08-.19,2.59-.06,3.64,1.05,3.61,3.79-.13,10.81-.08,21.62,0,32.43,0,3.17.2,6.35.39,9.52.09,1.71.21,3.37,2.13,4.35,1,.52.91,1.66,0,2.52a5.63,5.63,0,0,1-8.67-.83c-.84-1.27-1.5-.56-2.22-.16a21.58,21.58,0,0,1-13.11,2.68c-4.73-.53-8.25-2.8-9.68-7.5a30.85,30.85,0,0,1,1.11-22.07c2.79-6.27,9.36-9.43,17.52-8.83C389.61,197.19,391.13,197.43,393,197.65Z" transform="translate(-14.57 -13.41)"/><path class="cls-14" d="M203.85,202c4.55-2.65,8.8-4.6,13.66-4.68,6.91-.12,10.05,2.81,10.25,9.72s-.14,13.8.39,20.69c.11,1.51.21,2.91,2.11,3.28,1.36.26,1.19,1.5,1.18,2.4,0,1.09-.92,1.51-1.91,1.52-2.36,0-4.72.05-7.08,0-1.85-.08-2.35-1.32-2.34-3,0-6,0-12,0-18a25.15,25.15,0,0,0-.82-6.46c-.92-3.32-2.7-4.66-6.07-4.7-3.68,0-6.32,1.61-7.22,4.58a9.43,9.43,0,0,0-.47,2.67c0,6.35.11,12.7.07,19.05,0,1.7.59,2.29,2.23,2.08,1.37-.18,2.56-.06,2.56,1.84s-1.1,2-2.52,2c-4.27,0-8.54-.08-12.8,0-1.53,0-1.93-.72-2-1.9s.55-2.2,2-2c2.29.38,2.43-.91,2.49-2.65a190.87,190.87,0,0,0-.17-22.31c-.18-2.14-.58-4-3.1-4.44-1.27-.22-1.12-1.28-1.17-2.11a1.46,1.46,0,0,1,1.54-1.57c2.72-.17,5.44-.25,8.16-.38.87,0,1.08.46,1.08,1.19S203.85,200.6,203.85,202Z" transform="translate(-14.57 -13.41)"/><path class="cls-14" d="M443.14,212.78c.19,5.07-.25,9.89.41,14.68.19,1.37.41,2.51,2,3.18s1.36,2.16.19,3.21c-2.3,2.09-6.7,1.72-8.51-.83-.93-1.31-1.65-.64-2.49-.22a24.53,24.53,0,0,1-10.13,2.77c-7.16.28-10.64-2.82-10.86-10.06-.17-5.44-.07-10.88-.15-16.33a47.13,47.13,0,0,0-.45-4.87,2.55,2.55,0,0,0-2.13-2.49,1.61,1.61,0,0,1-1.61-1.77,1.88,1.88,0,0,1,1.66-1.89,21,21,0,0,1,8.64-.25c1.62.31,1.61,1.72,1.62,3,0,6.26,0,12.52.07,18.78a22.08,22.08,0,0,0,.94,6.71c1,3,3,4.3,6.2,4.13,3.58-.19,6.28-1.92,6.57-4.9a105.23,105.23,0,0,0-.09-21.44c-.14-1.29-.71-2.3-2.11-2.44-1.07-.1-1.38-.69-1.42-1.59a1.8,1.8,0,0,1,1.5-2,20,20,0,0,1,8.37-.34c1.62.26,1.77,1.57,1.77,2.92C443.13,204.88,443.14,209,443.14,212.78Z" transform="translate(-14.57 -13.41)"/><path class="cls-14" d="M483,215.86c.12,3.9-.08,7.81.45,11.69.21,1.55.37,2.87,2.21,3.64,1.61.67,1,2.12-.1,3-2.23,1.88-6.69,1.36-8.37-1.08-.87-1.26-1.53-.84-2.45-.36a24.34,24.34,0,0,1-11.76,2.85c-5.13-.09-8.17-2-9.25-6-1.4-5.05.39-10.25,4.42-12.69s8.78-2.64,13.42-2.67c4.26,0,4.26,0,3.75-4.15-.79-6.35-4.75-9-10.94-7.39a2.37,2.37,0,0,0-1.52,1.37c-1.24,2.07-3.23,2.2-5.21,1.69-1.37-.35-3-4.6-2.63-5.94.3-1,1.17-1.15,1.92-1.27,6-.91,12-1.79,18.12-.72,5.26.92,7.74,3.67,7.92,9C483,209.87,483,212.87,483,215.86Z" transform="translate(-14.57 -13.41)"/><path class="cls-14" d="M322.57,228.54a179,179,0,0,0,7.22-24.81c.13-.65.55-1.45-.73-1.52-1.85-.1-1.45-1.57-1.4-2.65s1-1.64,2.11-1.64c2.72,0,5.45,0,8.17,0,1.14,0,1.69.41,1.76,1.53s.25,2.51-1.18,2.63c-1.75.14-1.89,1.31-2.3,2.48-3,8.73-6,17.47-9.17,26.15-1.69,4.63-4.7,6-9.44,4.83-1.31-.32-1.35-1.32-1.64-2.22-2.69-8.17-5.34-16.35-8-24.52-.54-1.63-1.2-3.22-1.87-4.81-.47-1.12-1.18-2.18-2.51-2.21-1.61,0-1.69-1-1.69-2.17,0-1.32.86-1.67,2-1.77l.81-.07c9-.79,8.9-.77,11,7.91A204,204,0,0,0,322.57,228.54Z" transform="translate(-14.57 -13.41)"/><path class="cls-14" d="M176.17,234.92c-2.45,0-4.9-.06-7.34,0-1.37.05-2-.41-2.1-1.8s.64-2.3,2.11-2.05c2.61.44,3.12-.83,3.15-3.13.17-12.61.24-25.21,0-37.82-.05-2.16-.61-3.22-2.93-2.8-1.4.25-2.27-.28-2.33-1.84s.77-2.07,2.18-2.06c5,0,10,0,15,0,1.43,0,1.91.61,2,1.95s-.8,2.15-2,1.92c-3.21-.61-3.25,1.37-3.28,3.59-.17,12.61-.24,25.22.11,37.83.05,1.87.57,2.62,2.48,2.37,1.42-.19,2.75-.17,2.7,1.95s-1.5,1.88-2.86,1.88C180.71,234.93,178.44,234.92,176.17,234.92Z" transform="translate(-14.57 -13.41)"/><path class="cls-14" d="M504.93,206.62c0,7.35,0,14.71,0,22.06,0,1.83.55,2.7,2.49,2.4,1.33-.2,2.29.09,2.29,1.8s-.79,2.06-2.2,2.05c-4.45,0-8.9-.05-13.35,0-1.31,0-1.83-.54-1.89-1.72s.36-2.35,1.79-2.11c2.72.46,2.9-1.11,2.91-3.12.1-12.71.47-25.42-.25-38.13-.13-2.27-.32-4.43-3.4-4.62-1-.07-1-1.15-1.06-1.95s.25-1.67,1.24-1.81a29.07,29.07,0,0,1,9.76,0c1.71.33,1.51,1.8,1.51,3.07q0,11,0,22.07Z" transform="translate(-14.57 -13.41)"/><path class="cls-14" d="M357.52,215c0,4.63,0,9.25,0,13.88,0,1.53.23,2.46,2.06,2.17,1.39-.21,2.49,0,2.47,1.89s-1.16,2-2.54,2c-4.17,0-8.35,0-12.53,0-1.27,0-2.09-.2-2.1-1.71s.43-2.41,2-2.14c2.4.41,2.58-.91,2.57-2.78-.07-7.26,0-14.52-.07-21.78,0-2.35-.24-4.69-3.45-4.86-1-.05-1-.89-1-1.6a1.75,1.75,0,0,1,1.34-2.09,27.08,27.08,0,0,1,9.75-.05c1.52.3,1.34,1.79,1.35,2.93.05,4.72,0,9.44,0,14.16Z" transform="translate(-14.57 -13.41)"/><path class="cls-14" d="M293.73,214.9c0,4.63,0,9.26,0,13.89,0,1.65.3,2.59,2.21,2.29,1.29-.2,2.28,0,2.32,1.76s-1,2.1-2.41,2.09c-4.27,0-8.54-.06-12.8,0-1.44,0-2-.51-1.95-1.86s.44-2.23,1.88-2c2.52.42,2.73-.92,2.7-2.93-.09-7.08,0-14.16-.06-21.24,0-2.49-.06-5.08-3.61-5.28-1-.06-.87-1-.9-1.72a1.74,1.74,0,0,1,1.48-2,29.34,29.34,0,0,1,9.49,0c1.58.28,1.46,1.71,1.47,2.84.05,4.72,0,9.44,0,14.16Z" transform="translate(-14.57 -13.41)"/><path class="cls-15" d="M352.22,191.11c-3,0-4.78-1.48-4.71-4,.07-2.72,2.36-4.52,5.72-4.48,3,0,4.84,1.59,4.76,4C357.91,189.34,355.63,191.1,352.22,191.11Z" transform="translate(-14.57 -13.41)"/><path class="cls-15" d="M288.45,191.11c-3,0-4.79-1.48-4.73-4,.06-2.73,2.34-4.53,5.71-4.5,3,0,4.84,1.58,4.78,4C294.14,189.33,291.86,191.09,288.45,191.11Z" transform="translate(-14.57 -13.41)"/><path class="cls-4" d="M262.87,214.43c0,3.35.18,6.72-.05,10-.25,3.55-1.82,5.08-5.33,5.9s-6.47-.25-8.21-2.8a12.39,12.39,0,0,1-1.83-4.79,35.77,35.77,0,0,1-.17-12.72c1.11-6.63,4.83-9.12,11.43-7.66,4.28.94,4.44,1.13,4.44,5.48v6.53Z" transform="translate(-14.57 -13.41)"/><path class="cls-4" d="M392.62,214.43c0,3.35.18,6.72-.05,10-.24,3.55-1.82,5.08-5.33,5.9s-6.47-.25-8.21-2.8a12.72,12.72,0,0,1-1.83-4.79,35.54,35.54,0,0,1-.16-12.72c1.1-6.63,4.83-9.12,11.43-7.66,4.28.94,4.43,1.13,4.43,5.48v6.53Z" transform="translate(-14.57 -13.41)"/><path class="cls-4" d="M469.87,218.6c6.95.48,6.13-.22,5.4,6.67-.41,3.86-5.15,6.18-9.84,5.1-3.4-.78-5-4.07-3.88-7.93A4.58,4.58,0,0,1,465,219,16.78,16.78,0,0,1,469.87,218.6Z" transform="translate(-14.57 -13.41)"/></svg>